<svg width="116" height="28" viewBox="0 0 116 28" fill="none" xmlns="http://www.w3.org/2000/svg">
<path d="M61.1191 6.52053C60.2176 6.52053 59.4577 6.20383 58.8567 5.58038C58.2606 4.9744 57.9278 4.13899 57.9427 3.28612C57.9427 2.3759 58.2507 1.60532 58.8567 0.994349C59.4552 0.370908 60.2151 0.0541992 61.1167 0.0541992C62.0082 0.0541992 62.7682 0.370908 63.3791 0.994349C63.9851 1.62527 64.2931 2.39585 64.2931 3.28612C64.2831 4.19884 63.9752 4.96941 63.3791 5.57789C62.7806 6.20632 62.0207 6.52053 61.1191 6.52053ZM34.2946 6.52053C33.413 6.52053 32.6481 6.20881 32.0222 5.59285C31.4013 4.97939 31.0859 4.20383 31.0859 3.28861C31.0859 2.3734 31.4013 1.59784 32.0222 0.984374C32.6357 0.368414 33.4006 0.0566931 34.2946 0.0566931C34.7317 0.0566931 35.1564 0.143975 35.5637 0.321032C35.9636 0.493102 36.2889 0.727516 36.5298 1.0143L36.5894 1.08662L35.9164 1.74996L35.8468 1.66767C35.4669 1.2138 34.9577 0.991855 34.2847 0.991855C33.6837 0.991855 33.1597 1.20632 32.7275 1.63026C32.2929 2.05669 32.0719 2.6153 32.0719 3.29111C32.0719 3.96692 32.2929 4.52552 32.7275 4.95196C33.1597 5.3759 33.6837 5.59036 34.2847 5.59036C34.9255 5.59036 35.4644 5.3759 35.8841 4.95196C36.1324 4.70258 36.2864 4.35345 36.3411 3.91205H34.1829V2.97939H37.2674L37.2798 3.06417C37.3022 3.22128 37.3245 3.38338 37.3245 3.533C37.3245 4.39335 37.0663 5.08911 36.5546 5.60283C35.9735 6.21131 35.2135 6.52053 34.2946 6.52053ZM69.9605 6.38836H69.0093L66.0961 1.70757L66.121 2.55046V6.38587H65.1698V0.188863H66.2551L66.2849 0.236245L69.0242 4.64522L68.9993 3.80482V0.188863H69.9605V6.38836ZM53.9716 6.38836H53.008V1.12153H51.3366V0.188863H55.6405V1.12153H53.9691V6.38836H53.9716ZM50.5518 6.38836H49.5906V0.188863H50.5518V6.38836ZM45.1501 6.38836H44.189V1.12153H42.5176V0.188863H46.8215V1.12153H45.1501V6.38836ZM41.9091 6.37839H38.2236V0.188863H41.9091V1.12153H39.1872V2.82228H41.6434V3.74497H39.1872V5.44572H41.9091V6.37839ZM59.562 4.93949C59.9916 5.37091 60.5132 5.58787 61.1191 5.58787C61.7425 5.58787 62.2516 5.3759 62.6763 4.93949C63.0985 4.51555 63.3121 3.95944 63.3121 3.28861C63.3121 2.61779 63.0985 2.05919 62.6788 1.63774C62.2491 1.20632 61.7251 0.989361 61.1216 0.989361C60.4983 0.989361 59.9891 1.20133 59.5669 1.63774C59.1447 2.06168 58.9312 2.61779 58.9312 3.28861C58.9312 3.95944 59.1423 4.51804 59.562 4.93949Z" fill="#FF553E"/>
<path fill-rule="evenodd" clip-rule="evenodd" d="M57.8528 15.044C55.5059 15.044 53.6035 16.832 53.6035 19.2984C53.6035 21.7422 55.5183 23.5527 57.8528 23.5527C60.1998 23.5527 62.1021 21.7522 62.1021 19.2984C62.1021 16.832 60.1998 15.044 57.8528 15.044ZM57.8528 21.8669C56.5688 21.8669 55.4636 20.7996 55.4636 19.2884C55.4636 17.7547 56.5713 16.7098 57.8528 16.7098C59.1368 16.7098 60.242 17.7547 60.242 19.2884C60.2445 20.8096 59.1368 21.8669 57.8528 21.8669ZM48.5818 15.044C46.2348 15.044 44.3324 16.832 44.3324 19.2984C44.3324 21.7422 46.2472 23.5527 48.5818 23.5527C50.9287 23.5527 52.8311 21.7522 52.8311 19.2984C52.8311 16.832 50.9262 15.044 48.5818 15.044ZM48.5818 21.8669C47.2978 21.8669 46.1926 20.7996 46.1926 19.2884C46.1926 17.7547 47.3003 16.7098 48.5818 16.7098C49.8658 16.7098 50.9709 17.7547 50.9709 19.2884C50.9709 20.8096 49.8658 21.8669 48.5818 21.8669ZM37.5499 16.3432V18.1437H41.8539C41.7222 19.1537 41.3894 19.8994 40.8803 20.4106C40.2495 21.044 39.2759 21.7323 37.5598 21.7323C34.9149 21.7323 32.8461 19.5876 32.8461 16.9318C32.8461 14.2759 34.9149 12.1313 37.5598 12.1313C38.9879 12.1313 40.0285 12.6974 40.8008 13.4206L42.0724 12.1437C40.9995 11.1113 39.5715 10.3208 37.5698 10.3208C33.9413 10.3208 30.8965 13.2884 30.8965 16.9218C30.8965 20.5652 33.9388 23.5228 37.5698 23.5228C39.5293 23.5228 40.9995 22.8794 42.1618 21.6674C43.3465 20.4779 43.7215 18.7996 43.7215 17.4455C43.7215 17.024 43.6892 16.645 43.6221 16.3233H37.5474C37.5499 16.3208 37.5499 16.3432 37.5499 16.3432ZM82.6733 17.7447C82.3181 16.7896 81.2453 15.034 79.0448 15.034C76.8643 15.034 75.0513 16.7572 75.0513 19.2884C75.0513 21.6774 76.8444 23.5427 79.2559 23.5427C81.1931 23.5427 82.3206 22.3532 82.7851 21.655L81.3471 20.6874C80.8702 21.3981 80.2071 21.8644 79.2659 21.8644C78.3147 21.8644 77.6491 21.4305 77.207 20.5752L82.872 18.2186C82.872 18.221 82.6733 17.7447 82.6733 17.7447ZM76.8966 19.1662C76.8519 17.5228 78.1682 16.6874 79.1094 16.6874C79.852 16.6874 80.4704 17.054 80.6815 17.5876L76.8966 19.1662ZM72.2946 23.2884H74.1548V10.7896H72.2946V23.2884ZM69.2398 15.9891H69.1728C68.7531 15.4879 67.9558 15.034 66.9376 15.034C64.8241 15.034 62.877 16.9018 62.877 19.3008C62.877 21.6899 64.8142 23.5353 66.9376 23.5353C67.9434 23.5353 68.7531 23.0789 69.1728 22.5677H69.2398V23.1787C69.2398 24.8021 68.3756 25.6774 66.9823 25.6774C65.8424 25.6774 65.1345 24.8545 64.8465 24.1662L63.2297 24.8445C63.6941 25.9667 64.9334 27.3557 66.9798 27.3557C69.1604 27.3557 71.0081 26.0664 71.0081 22.9218V15.2884H69.2498V15.9891C69.2523 15.9891 69.2398 15.9891 69.2398 15.9891ZM67.104 21.8669C65.82 21.8669 64.7471 20.7896 64.7471 19.3008C64.7471 17.7996 65.82 16.7123 67.104 16.7123C68.3756 16.7123 69.3615 17.8121 69.3615 19.3008C69.3739 20.7896 68.378 21.8669 67.104 21.8669ZM91.3831 10.7896H86.935V23.2884H88.7952V18.5552H91.3855C93.4444 18.5552 95.4685 17.0565 95.4685 14.6774C95.4685 12.2984 93.4518 10.7896 91.3831 10.7896ZM91.4377 16.8096H88.7927V12.5203H91.4377C92.831 12.5203 93.6183 13.6749 93.6183 14.6649C93.6183 15.645 92.821 16.8096 91.4377 16.8096ZM102.924 15.0215C101.573 15.0215 100.18 15.6225 99.6036 16.9318L101.253 17.6201C101.608 16.9318 102.258 16.6974 102.946 16.6974C103.91 16.6974 104.884 17.2759 104.906 18.3083V18.4405C104.573 18.251 103.843 17.9617 102.969 17.9617C101.188 17.9617 99.3825 18.9393 99.3825 20.7722C99.3825 22.4505 100.843 23.5278 102.47 23.5278C103.719 23.5278 104.407 22.9617 104.836 22.3058H104.903V23.2734H106.697V18.4854C106.697 16.256 105.047 15.0215 102.924 15.0215ZM102.691 21.8669C102.082 21.8669 101.23 21.5677 101.23 20.7996C101.23 19.832 102.293 19.4654 103.2 19.4654C104.019 19.4654 104.407 19.6425 104.894 19.8869C104.759 21.0091 103.816 21.857 102.691 21.8669ZM113.238 15.2884L111.102 20.7098H111.035L108.822 15.2884H106.821L110.141 22.8669L108.249 27.0789H110.186L115.295 15.2884H113.238ZM96.4942 23.2884H98.3544V10.7896H96.4942V23.2884Z" fill="#FF553E"/>
<path d="M16.5554 17.4047L13.069 13.8742L16.5527 10.3263C19.0409 11.7149 20.9514 12.7758 21.3185 12.9704C22.5041 13.6157 21.9016 14.4465 21.3185 14.7605C21.1924 14.824 20.1402 15.4095 18.5793 16.278L18.578 16.2788C18.3267 16.4186 18.0623 16.5658 17.7865 16.7194C17.3973 16.9362 16.9853 17.1656 16.5554 17.4047Z" fill="#FF553E"/>
<path d="M15.9206 17.7577L12.5788 14.3734L1.41158 25.7465C1.54615 25.7055 1.68897 25.6433 1.84148 25.5585C1.95572 25.4952 2.23359 25.3415 2.64203 25.1156L2.66635 25.1021C4.96477 23.8309 11.2755 20.3404 15.9206 17.7577Z" fill="#FF553E"/>
<path d="M0.499208 25.6771C0.171546 25.4535 0 24.9858 0 24.3953V3.44533C0 2.79228 0.227391 2.39046 0.542315 2.18445L12.0871 13.8756L0.499208 25.6771Z" fill="#FF553E"/>
<path d="M1.39699 2.0542L12.5773 13.3763L15.9064 9.98579C13.8421 8.84571 2.58686 2.63014 1.84128 2.22863C1.69964 2.14338 1.54876 2.08602 1.39699 2.0542Z" fill="#FF553E"/>
</svg>
