<svg width="32" height="32" viewBox="0 0 32 32" fill="none" xmlns="http://www.w3.org/2000/svg">
<g clip-path="url(#clip0_1_293)">
<path d="M11.0574 9.92373L10.0796 8.23013L9.10063 8.15735L8.73981 9.00373L9.71833 10.6985C10.4212 10.8275 10.9434 10.555 11.0574 9.92373Z" fill="#B9C1CB"/>
<path d="M20.939 9.92373L21.9168 8.23013L22.8958 8.15735L23.2567 9.00373L22.2781 10.6985C21.5752 10.8275 21.053 10.555 20.939 9.92373Z" fill="#B9C1CB"/>
<path d="M16.7935 7.28258C18.0207 6.93101 18.8777 5.79271 18.8777 4.51457C18.8777 2.92704 17.5862 1.63554 15.9986 1.63554C14.4111 1.63554 13.1196 2.9271 13.1196 4.51457C13.1196 5.79271 13.9766 6.93101 15.2038 7.28258L15.3283 8.24249C13.5162 7.91848 12.2114 6.3229 12.2114 4.51451C12.2114 2.42627 13.9103 0.727295 15.9986 0.727295C18.0869 0.727295 19.7859 2.42627 19.7859 4.51451C19.7859 6.32027 18.485 7.91383 16.677 8.24106L16.7935 7.28258Z" fill="#DAE4EA"/>
<path d="M15.9985 9.03153C16.3083 9.03153 16.615 9.04602 16.9184 9.07442V5.29395H15.0786V9.07442C15.382 9.04602 15.6887 9.03153 15.9985 9.03153Z" fill="#B9C1CB"/>
<path d="M15.9984 31.2728C22.2087 31.2728 27.2432 26.2383 27.2432 20.028C27.2432 13.8177 22.2087 8.7832 15.9984 8.7832C9.78806 8.7832 4.7536 13.8177 4.7536 20.028C4.7536 26.2383 9.78806 31.2728 15.9984 31.2728Z" fill="#DAE4EA"/>
<path d="M17.3608 3.48108H14.6352C14.4999 3.48108 14.3903 3.59067 14.3903 3.72592V5.30319C14.3903 5.43844 14.4999 5.54803 14.6352 5.54803H17.3608C17.496 5.54803 17.6056 5.43844 17.6056 5.30319V3.72592C17.6056 3.59073 17.496 3.48108 17.3608 3.48108Z" fill="#DAE4EA"/>
<path d="M10.2193 8.14965L8.60064 9.08415C8.53973 9.11929 8.46188 9.09847 8.42674 9.03756L7.21727 6.94274C7.18213 6.88183 7.20295 6.80398 7.26386 6.76884L8.88247 5.83434C8.94339 5.7992 9.02124 5.82002 9.05638 5.88093L10.2658 7.97574C10.301 8.03659 10.2802 8.11445 10.2193 8.14965Z" fill="#DAE4EA"/>
<path d="M21.7769 8.14965L23.3955 9.08415C23.4564 9.11929 23.5343 9.09847 23.5694 9.03756L24.7789 6.94274C24.814 6.88183 24.7932 6.80398 24.7323 6.76884L23.1137 5.83434C23.0528 5.7992 22.9749 5.82002 22.9398 5.88093L21.7303 7.97574C21.6951 8.03659 21.716 8.11445 21.7769 8.14965Z" fill="#DAE4EA"/>
<path d="M15.998 29.2284C21.0793 29.2284 25.1984 25.1092 25.1984 20.028C25.1984 14.9467 21.0793 10.8275 15.998 10.8275C10.9167 10.8275 6.79755 14.9467 6.79755 20.028C6.79755 25.1092 10.9167 29.2284 15.998 29.2284Z" fill="#F6F9F9"/>
<path d="M18.8528 11.2789C21.2257 12.9429 22.7769 15.6988 22.7769 18.817C22.7769 23.8983 18.6578 28.0175 13.5765 28.0175C12.5801 28.0175 11.6206 27.8591 10.722 27.566C12.2158 28.6136 14.0353 29.2284 15.9984 29.2284C21.0796 29.2284 25.1988 25.1092 25.1988 20.0279C25.1988 15.9431 22.5367 12.48 18.8528 11.2789Z" fill="#E7ECF1"/>
<path d="M15.9988 19.9417V12.4283C15.9988 12.3803 16.0382 12.341 16.0862 12.3416C20.2556 12.3882 23.6385 15.7712 23.6851 19.9405C23.6857 19.9886 23.6464 20.0279 23.5984 20.0279H16.085C16.0374 20.0279 15.9988 19.9893 15.9988 19.9417Z" fill="#DA4A54"/>
<path d="M23.5982 20.0279C23.6462 20.0279 23.6855 19.9886 23.6849 19.9406C23.6657 18.2247 23.0814 16.642 22.1098 15.3702C22.5402 16.4348 22.7772 17.5982 22.7772 18.817C22.7772 19.2275 22.7503 19.6317 22.6982 20.0279H23.5982Z" fill="#D82E3D"/>
</g>
<defs>
<clipPath id="clip0_1_293">
<rect width="30.5455" height="30.5455" fill="white" transform="translate(0.726257 0.727295)"/>
</clipPath>
</defs>
</svg>
