<svg width="32" height="32" viewBox="0 0 32 32" fill="none" xmlns="http://www.w3.org/2000/svg">
<g clip-path="url(#clip0_1_256)">
<path d="M29.514 6.8381L17.6633 5.8736L2.48499 6.8381V30.5252C2.48499 30.938 2.81961 31.2727 3.23245 31.2727H28.7664C29.1793 31.2727 29.5141 30.9379 29.5141 30.525L29.514 6.8381Z" fill="#F6F9F9"/>
<path d="M29.514 6.8381L27.0556 5.60895V24.3447C27.0556 27.492 24.5042 30.0435 21.3569 30.0435H2.48499V30.5252C2.48499 30.9381 2.81961 31.2727 3.23245 31.2727H28.7664C29.1793 31.2727 29.514 30.9379 29.514 30.525V6.8381Z" fill="#E7ECF1"/>
<path d="M28.7664 2.47083H3.23257C2.81967 2.47083 2.48499 2.80551 2.48499 3.21841V6.83811H29.514V3.21841C29.514 2.80551 29.1793 2.47083 28.7664 2.47083Z" fill="#61A2F9"/>
<path d="M28.766 2.47083H27.0552V6.83811H29.5135V3.21841C29.5135 2.80551 29.1789 2.47083 28.766 2.47083Z" fill="#5490F9"/>
<path d="M6.30486 4.84174H5.88486C5.47351 4.84174 5.14001 4.50825 5.14001 4.0969V1.47214C5.14001 1.06079 5.47351 0.727295 5.88486 0.727295H6.30486C6.71621 0.727295 7.0497 1.06079 7.0497 1.47214V4.09684C7.0497 4.50825 6.71627 4.84174 6.30486 4.84174Z" fill="#DAE4EA"/>
<path d="M11.257 4.84174H10.837C10.4257 4.84174 10.0922 4.50825 10.0922 4.0969V1.47214C10.0922 1.06079 10.4257 0.727295 10.837 0.727295H11.257C11.6684 0.727295 12.0019 1.06079 12.0019 1.47214V4.09684C12.0019 4.50825 11.6684 4.84174 11.257 4.84174Z" fill="#DAE4EA"/>
<path d="M16.2084 4.84174H15.7884C15.3771 4.84174 15.0436 4.50825 15.0436 4.0969V1.47214C15.0436 1.06079 15.3771 0.727295 15.7884 0.727295H16.2084C16.6198 0.727295 16.9533 1.06079 16.9533 1.47214V4.09684C16.9533 4.50825 16.6198 4.84174 16.2084 4.84174Z" fill="#DAE4EA"/>
<path d="M21.1606 4.84174H20.7406C20.3293 4.84174 19.9958 4.50825 19.9958 4.0969V1.47214C19.9958 1.06079 20.3292 0.727295 20.7406 0.727295H21.1606C21.572 0.727295 21.9055 1.06079 21.9055 1.47214V4.09684C21.9055 4.50825 21.572 4.84174 21.1606 4.84174Z" fill="#DAE4EA"/>
<path d="M26.1135 4.84174H25.6935C25.2822 4.84174 24.9487 4.50825 24.9487 4.0969V1.47214C24.9487 1.06079 25.2821 0.727295 25.6935 0.727295H26.1135C26.5249 0.727295 26.8584 1.06079 26.8584 1.47214V4.09684C26.8584 4.50825 26.5249 4.84174 26.1135 4.84174Z" fill="#DAE4EA"/>
<path d="M23.7295 15.2658L21.7945 13.3308C21.6386 13.1749 21.3859 13.1749 21.23 13.3308L14.5482 20.0127C14.5264 20.0344 14.4913 20.0344 14.4696 20.0127L10.7809 16.324C10.625 16.1681 10.3724 16.1681 10.2165 16.324L8.26999 18.2705C8.1141 18.4264 8.1141 18.679 8.26999 18.8349L14.2151 24.78C14.371 24.9359 14.6237 24.9359 14.7796 24.78L23.7295 15.8301C23.8853 15.6743 23.8853 15.4217 23.7295 15.2658Z" fill="#80E29D"/>
</g>
<defs>
<clipPath id="clip0_1_256">
<rect width="30.5455" height="30.5455" fill="white" transform="translate(0.727295 0.727295)"/>
</clipPath>
</defs>
</svg>
