<svg width="32" height="28" viewBox="0 0 32 28" fill="none" xmlns="http://www.w3.org/2000/svg">
<g clip-path="url(#clip0_1_275)">
<path d="M28.762 4.3144L16.4704 3.50244L0.727295 4.3144V24.2637C0.727295 24.6114 1.0744 24.8933 1.5025 24.8933H27.9863C28.4144 24.8933 28.762 24.6114 28.762 24.2637V4.3144Z" fill="#F6F9F9"/>
<path d="M28.7625 4.31447L26.6894 3.27942V19.0589C26.6894 21.7098 24.5379 23.8583 21.8843 23.8583H0.73938V24.2643C0.73938 24.612 1.02159 24.8939 1.36971 24.8939H28.1322C28.4803 24.8939 28.7625 24.612 28.7625 24.2643V4.31447Z" fill="#E7ECF1"/>
<path d="M28.1317 0.636475H1.36919C1.02108 0.636475 0.738865 0.91835 0.738865 1.26605L0.727295 4.31442H28.762V1.26605C28.762 0.91835 28.4798 0.636475 28.1317 0.636475Z" fill="#61A2F9"/>
<path d="M28.1317 0.636475H26.6889V4.31442H28.762V1.26605C28.762 0.91835 28.4798 0.636475 28.1317 0.636475Z" fill="#5490F9"/>
<path d="M3.01611 17.2354V16.325C3.01611 16.2129 3.16753 16.1215 3.35417 16.1215H22.4763C22.6629 16.1215 22.8143 16.2124 22.8143 16.325V17.2354C22.8143 17.3479 22.6629 17.4389 22.4763 17.4389H3.35417C3.16753 17.4389 3.01611 17.3479 3.01611 17.2354Z" fill="#DAE4EA"/>
<path d="M3.01611 19.8698V18.9594C3.01611 18.8468 3.13735 18.7559 3.28726 18.7559H18.6254C18.7753 18.7559 18.8965 18.8468 18.8965 18.9594V19.8698C18.8965 19.9818 18.7753 20.0733 18.6254 20.0733H3.28726C3.13785 20.0733 3.01611 19.9823 3.01611 19.8698Z" fill="#DAE4EA"/>
<path d="M3.01611 13.0917V8.08524C3.01611 7.46773 3.56042 6.96729 4.2325 6.96729H11.0107C11.6822 6.96729 12.227 7.46773 12.227 8.08524V13.0917C12.227 13.7092 11.6827 14.2096 11.0107 14.2096H4.2325C3.56092 14.2096 3.01611 13.7092 3.01611 13.0917Z" fill="#DAE4EA"/>
<path d="M13.6033 13.0917V8.08524C13.6033 7.46773 14.1476 6.96729 14.8197 6.96729H21.5979C22.2694 6.96729 22.8143 7.46773 22.8143 8.08524V13.0917C22.8143 13.7092 22.2699 14.2096 21.5979 14.2096H14.8197C14.1481 14.2096 13.6033 13.7092 13.6033 13.0917Z" fill="#DAE4EA"/>
<path d="M31.0162 21.0552L30.1806 20.8738C30.1082 20.6517 30.0182 20.4346 29.9115 20.2261L30.3743 19.5076C30.4568 19.379 30.4387 19.2107 30.3306 19.1026L29.0287 17.8023C28.9205 17.6943 28.752 17.6762 28.6232 17.7586L27.9038 18.2208C27.6946 18.1148 27.4777 18.0249 27.2554 17.952L27.0738 17.1174C27.0416 16.9682 26.9093 16.8617 26.7564 16.8617H24.9157C24.7628 16.8617 24.6305 16.9682 24.5983 17.1174L24.4167 17.952C24.1943 18.0244 23.977 18.1143 23.7682 18.2208L23.0489 17.7586C22.9201 17.6762 22.7515 17.6943 22.6434 17.8023L21.3415 19.1026C21.2333 19.2107 21.2152 19.379 21.2977 19.5076L21.7605 20.2261C21.6544 20.4351 21.5643 20.6517 21.4914 20.8738L20.6558 21.0552C20.5064 21.0878 20.4003 21.2195 20.4003 21.3722V23.2107C20.4003 23.3634 20.5069 23.4951 20.6558 23.5277L21.4914 23.7091C21.5638 23.9312 21.6539 24.1482 21.7605 24.3568L21.2977 25.0753C21.2152 25.2039 21.2333 25.3722 21.3415 25.4803L22.6434 26.7806C22.7515 26.8886 22.9201 26.9067 23.0489 26.8243L23.7682 26.3621C23.9775 26.4681 24.1943 26.558 24.4167 26.6309L24.5983 27.4654C24.6305 27.6147 24.7628 27.7212 24.9157 27.7212H26.7564C26.9093 27.7212 27.0416 27.6147 27.0738 27.4654L27.2554 26.6309C27.4777 26.5585 27.6951 26.4686 27.9038 26.3621L28.6232 26.8243C28.752 26.9067 28.9205 26.8886 29.0287 26.7806L30.3306 25.4803C30.4387 25.3722 30.4568 25.2039 30.3743 25.0753L29.9115 24.3568C30.0177 24.1477 30.1077 23.9312 30.1806 23.7091L31.0162 23.5277C31.1656 23.4951 31.2723 23.3634 31.2723 23.2107V21.3722C31.2723 21.22 31.1656 21.0878 31.0162 21.0552ZM27.7856 22.2917C27.7856 23.3649 26.9113 24.2387 25.8363 24.2387C24.7618 24.2387 23.8869 23.3654 23.8869 22.2917C23.8869 21.218 24.7612 20.3447 25.8363 20.3447C26.9108 20.3452 27.7856 21.2185 27.7856 22.2917Z" fill="#C8D2D8"/>
</g>
<defs>
<clipPath id="clip0_1_275">
<rect width="30.5455" height="27.0846" fill="white" transform="translate(0.727295 0.636475)"/>
</clipPath>
</defs>
</svg>
